<svg xmlns="http://www.w3.org/2000/svg" xmlns:xlink="http://www.w3.org/1999/xlink" version="1.1" x="0px" y="0px" viewBox="0 0 40 50" enable-background="new 0 0 40 40" xml:space="preserve"><path fill-rule="evenodd" clip-rule="evenodd" d="M9.5,30v2h21v-2H9.5z M13.7,10.6c0.1-0.3,0.2-0.6,0.4-0.8  c0.1-0.2,0.4-0.3,0.7-0.4c0.3-0.1,0.8-0.2,1.3-0.2c0.5,0,1.3,0,2.2,0h0.1v15.2c0,0.1-0.1,0.2-0.2,0.3c-0.1,0.1-0.4,0.1-0.8,0.2  L15.6,25l-0.1,1h8.3l-0.1-1L22,24.8c-0.4,0-0.7-0.1-0.8-0.2c-0.1-0.1-0.2-0.2-0.2-0.3V9.1h0.1c1,0,1.7,0.1,2.2,0.1  c0.5,0.1,1,0.2,1.2,0.3c0.3,0.1,0.5,0.3,0.6,0.5c0.1,0.2,0.2,0.5,0.3,0.8l0.7,2.8h1.4l0-5.6H12l-0.5,5.6h1.4L13.7,10.6z"/><text x="0" y="55" fill="#000000" font-size="5px" font-weight="bold" font-family="'Helvetica Neue', Helvetica, Arial-Unicode, Arial, Sans-serif">Created by Hello Many</text><text x="0" y="60" fill="#000000" font-size="5px" font-weight="bold" font-family="'Helvetica Neue', Helvetica, Arial-Unicode, Arial, Sans-serif">from the Noun Project</text></svg>