<?xml version="1.0" encoding="UTF-8"?>
<svg width="110px" height="110px" viewBox="0 0 110 110" version="1.1" xmlns="http://www.w3.org/2000/svg" xmlns:xlink="http://www.w3.org/1999/xlink">
    <!-- Generator: Sketch 48.1 (47250) - http://www.bohemiancoding.com/sketch -->
    <title>Group</title>
    <desc>Created with Sketch.</desc>
    <defs></defs>
    <g id="Page-1" stroke="none" stroke-width="1" fill="none" fill-rule="evenodd">
        <g id="Group-2" transform="translate(1.000000, 1.000000)">
            <g id="Group">
                <circle id="Oval" stroke-opacity="0.98" stroke="#000000" stroke-width="2" cx="54" cy="54" r="54"></circle>
                <path d="M49.222,91.957 C49.395,91.957 49.568,91.912 49.722,91.823 L65.945,82.447 L82.184,73.081 C82.494,72.902 82.684,72.572 82.684,72.215 L82.684,53.479 C82.684,53.122 82.494,52.791 82.184,52.613 L66.445,43.529 L66.445,25.376 C66.445,25.019 66.255,24.689 65.945,24.51 L49.722,15.134 C49.568,15.045 49.395,15 49.222,15 C49.049,15 48.876,15.045 48.722,15.134 L32.5,24.51 C32.19,24.689 32,25.019 32,25.376 L32,44.106 L32,62.845 L32,81.581 C32,81.938 32.19,82.269 32.5,82.447 L48.722,91.823 C48.876,91.913 49.049,91.957 49.222,91.957 Z M81.434,72.071 L65.695,81.149 L65.695,62.99 L81.434,53.913 L81.434,72.071 Z M65.194,62.701 L49.471,71.782 L49.471,53.624 L65.194,44.54 L65.194,62.701 Z M49.472,72.36 L65.195,63.279 L65.195,81.437 L49.472,90.524 L49.472,72.36 Z M65.194,43.961 L49.471,53.045 L49.471,34.886 L65.194,25.808 L65.194,43.961 Z M48.972,34.886 L48.972,53.045 L33.25,43.961 L33.25,25.809 L48.972,34.886 Z M48.972,53.624 L48.972,71.782 L33.25,62.701 L33.25,44.54 L48.972,53.624 Z M33.25,63.279 L48.972,72.36 L48.972,90.524 L33.25,81.437 L33.25,63.279 Z" id="Shape" fill="#000000" fill-rule="nonzero"></path>
            </g>
        </g>
    </g>
</svg>